<mxfile host="app.diagrams.net" modified="2023-05-04T10:31:35.810Z" agent="Mozilla/5.0 (Windows NT 10.0; Win64; x64) AppleWebKit/537.36 (KHTML, like Gecko) Chrome/112.0.0.0 Safari/537.36" etag="OtsXFNL_Mu3tXkx6g-Va" version="21.2.7" type="github">
  <diagram name="Страница 1" id="ZXxWVmoM-_RcAxKsygru">
    <mxGraphModel dx="1134" dy="614" grid="1" gridSize="10" guides="1" tooltips="1" connect="1" arrows="1" fold="1" page="1" pageScale="1" pageWidth="827" pageHeight="1169" math="0" shadow="0">
      <root>
        <mxCell id="0" />
        <mxCell id="1" parent="0" />
        <mxCell id="9VpWsme2xIUJFyUyPwxU-4" value="" style="edgeStyle=orthogonalEdgeStyle;rounded=0;orthogonalLoop=1;jettySize=auto;html=1;" parent="1" source="9VpWsme2xIUJFyUyPwxU-1" edge="1">
          <mxGeometry relative="1" as="geometry">
            <mxPoint x="410" y="100" as="targetPoint" />
          </mxGeometry>
        </mxCell>
        <mxCell id="9VpWsme2xIUJFyUyPwxU-1" value="START" style="rounded=1;whiteSpace=wrap;html=1;" parent="1" vertex="1">
          <mxGeometry x="350" y="20" width="120" height="60" as="geometry" />
        </mxCell>
        <mxCell id="c_KZ6jZtcO5i2P0w1yy3-6" value="" style="edgeStyle=orthogonalEdgeStyle;rounded=0;orthogonalLoop=1;jettySize=auto;html=1;" edge="1" parent="1" source="9VpWsme2xIUJFyUyPwxU-3" target="c_KZ6jZtcO5i2P0w1yy3-1">
          <mxGeometry relative="1" as="geometry" />
        </mxCell>
        <mxCell id="9VpWsme2xIUJFyUyPwxU-3" value="arr[10]&lt;br&gt;outarr[10]" style="rounded=0;whiteSpace=wrap;html=1;" parent="1" vertex="1">
          <mxGeometry x="350" y="100" width="120" height="60" as="geometry" />
        </mxCell>
        <mxCell id="9VpWsme2xIUJFyUyPwxU-9" value="" style="edgeStyle=orthogonalEdgeStyle;rounded=0;orthogonalLoop=1;jettySize=auto;html=1;" parent="1" source="9VpWsme2xIUJFyUyPwxU-6" target="9VpWsme2xIUJFyUyPwxU-7" edge="1">
          <mxGeometry relative="1" as="geometry" />
        </mxCell>
        <mxCell id="c_KZ6jZtcO5i2P0w1yy3-9" value="" style="edgeStyle=orthogonalEdgeStyle;rounded=0;orthogonalLoop=1;jettySize=auto;html=1;entryX=0.696;entryY=-0.05;entryDx=0;entryDy=0;entryPerimeter=0;" edge="1" parent="1" source="9VpWsme2xIUJFyUyPwxU-6" target="9VpWsme2xIUJFyUyPwxU-12">
          <mxGeometry relative="1" as="geometry">
            <mxPoint x="210" y="380" as="targetPoint" />
          </mxGeometry>
        </mxCell>
        <mxCell id="9VpWsme2xIUJFyUyPwxU-6" value="&lt;div style=&quot;font-family: Consolas, &amp;quot;Courier New&amp;quot;, monospace; font-size: 14px; line-height: 19px;&quot;&gt;&lt;span style=&quot;background-color: rgb(255, 255, 255);&quot;&gt;arr[i].Length&amp;lt;=3&lt;/span&gt;&lt;/div&gt;" style="rhombus;whiteSpace=wrap;html=1;" parent="1" vertex="1">
          <mxGeometry x="290" y="310" width="240" height="80" as="geometry" />
        </mxCell>
        <mxCell id="9VpWsme2xIUJFyUyPwxU-11" value="" style="edgeStyle=orthogonalEdgeStyle;rounded=0;orthogonalLoop=1;jettySize=auto;html=1;" parent="1" source="9VpWsme2xIUJFyUyPwxU-7" target="9VpWsme2xIUJFyUyPwxU-10" edge="1">
          <mxGeometry relative="1" as="geometry" />
        </mxCell>
        <mxCell id="9VpWsme2xIUJFyUyPwxU-13" value="" style="edgeStyle=orthogonalEdgeStyle;rounded=0;orthogonalLoop=1;jettySize=auto;html=1;" parent="1" source="9VpWsme2xIUJFyUyPwxU-7" target="9VpWsme2xIUJFyUyPwxU-12" edge="1">
          <mxGeometry relative="1" as="geometry" />
        </mxCell>
        <mxCell id="9VpWsme2xIUJFyUyPwxU-7" value="&lt;div style=&quot;font-family: Consolas, &amp;quot;Courier New&amp;quot;, monospace; font-size: 14px; line-height: 19px;&quot;&gt;&lt;span style=&quot;background-color: rgb(255, 255, 255);&quot;&gt;if(r.Next(1,100) &amp;lt; 50)&lt;/span&gt;&lt;/div&gt;" style="rhombus;whiteSpace=wrap;html=1;" parent="1" vertex="1">
          <mxGeometry x="290" y="440" width="240" height="80" as="geometry" />
        </mxCell>
        <mxCell id="9VpWsme2xIUJFyUyPwxU-22" value="" style="edgeStyle=orthogonalEdgeStyle;rounded=0;orthogonalLoop=1;jettySize=auto;html=1;entryX=0.45;entryY=1.05;entryDx=0;entryDy=0;entryPerimeter=0;exitX=0;exitY=0.5;exitDx=0;exitDy=0;" parent="1" source="9VpWsme2xIUJFyUyPwxU-10" target="9VpWsme2xIUJFyUyPwxU-12" edge="1">
          <mxGeometry relative="1" as="geometry">
            <mxPoint x="580" y="590" as="targetPoint" />
            <Array as="points">
              <mxPoint x="320" y="590" />
              <mxPoint x="154" y="590" />
            </Array>
            <mxPoint x="350" y="600" as="sourcePoint" />
          </mxGeometry>
        </mxCell>
        <mxCell id="9VpWsme2xIUJFyUyPwxU-10" value="&lt;div style=&quot;font-family: Consolas, &amp;quot;Courier New&amp;quot;, monospace; font-size: 14px; line-height: 19px;&quot;&gt;&lt;span style=&quot;background-color: rgb(255, 255, 255);&quot;&gt;outarr[n] = arr[i]&lt;/span&gt;&lt;/div&gt;" style="rounded=0;whiteSpace=wrap;html=1;" parent="1" vertex="1">
          <mxGeometry x="320" y="555" width="180" height="60" as="geometry" />
        </mxCell>
        <mxCell id="9VpWsme2xIUJFyUyPwxU-12" value="i=i+1" style="whiteSpace=wrap;html=1;" parent="1" vertex="1">
          <mxGeometry x="100" y="450" width="120" height="60" as="geometry" />
        </mxCell>
        <mxCell id="9VpWsme2xIUJFyUyPwxU-14" value="true" style="text;html=1;strokeColor=none;fillColor=none;align=center;verticalAlign=middle;whiteSpace=wrap;rounded=0;" parent="1" vertex="1">
          <mxGeometry x="400" y="525" width="60" height="30" as="geometry" />
        </mxCell>
        <mxCell id="9VpWsme2xIUJFyUyPwxU-15" value="false" style="text;html=1;strokeColor=none;fillColor=none;align=center;verticalAlign=middle;whiteSpace=wrap;rounded=0;" parent="1" vertex="1">
          <mxGeometry x="230" y="450" width="60" height="30" as="geometry" />
        </mxCell>
        <mxCell id="9VpWsme2xIUJFyUyPwxU-18" value="" style="endArrow=classic;html=1;rounded=0;exitX=0.5;exitY=0;exitDx=0;exitDy=0;entryX=0;entryY=0.5;entryDx=0;entryDy=0;" parent="1" target="c_KZ6jZtcO5i2P0w1yy3-1" edge="1" source="9VpWsme2xIUJFyUyPwxU-12">
          <mxGeometry width="50" height="50" relative="1" as="geometry">
            <mxPoint x="250" y="440" as="sourcePoint" />
            <mxPoint x="290" y="250" as="targetPoint" />
            <Array as="points">
              <mxPoint x="160" y="310" />
              <mxPoint x="160" y="220" />
              <mxPoint x="230" y="220" />
            </Array>
          </mxGeometry>
        </mxCell>
        <mxCell id="9VpWsme2xIUJFyUyPwxU-19" value="true" style="text;html=1;strokeColor=none;fillColor=none;align=center;verticalAlign=middle;whiteSpace=wrap;rounded=0;" parent="1" vertex="1">
          <mxGeometry x="360" y="400" width="60" height="30" as="geometry" />
        </mxCell>
        <mxCell id="9VpWsme2xIUJFyUyPwxU-26" value="" style="edgeStyle=orthogonalEdgeStyle;rounded=0;orthogonalLoop=1;jettySize=auto;html=1;" parent="1" source="9VpWsme2xIUJFyUyPwxU-23" target="9VpWsme2xIUJFyUyPwxU-25" edge="1">
          <mxGeometry relative="1" as="geometry" />
        </mxCell>
        <mxCell id="9VpWsme2xIUJFyUyPwxU-23" value="print arr&lt;br&gt;print outarr" style="shape=document;whiteSpace=wrap;html=1;boundedLbl=1;" parent="1" vertex="1">
          <mxGeometry x="610" y="280" width="120" height="80" as="geometry" />
        </mxCell>
        <mxCell id="9VpWsme2xIUJFyUyPwxU-25" value="FINISH" style="rounded=1;whiteSpace=wrap;html=1;" parent="1" vertex="1">
          <mxGeometry x="610" y="435" width="120" height="60" as="geometry" />
        </mxCell>
        <mxCell id="9VpWsme2xIUJFyUyPwxU-27" value="&lt;h1 style=&quot;font-size: 20px;&quot;&gt;&lt;font style=&quot;font-size: 20px;&quot;&gt;Написать программу, которая из имеющегося массива строк формирует новый массив&amp;nbsp;&lt;/font&gt;из строк, длина которых меньше, либо равна 3 символам.&lt;/h1&gt;" style="text;html=1;strokeColor=none;fillColor=none;spacing=5;spacingTop=-20;whiteSpace=wrap;overflow=hidden;rounded=0;" parent="1" vertex="1">
          <mxGeometry x="550" y="10" width="230" height="220" as="geometry" />
        </mxCell>
        <mxCell id="c_KZ6jZtcO5i2P0w1yy3-4" value="" style="edgeStyle=orthogonalEdgeStyle;rounded=0;orthogonalLoop=1;jettySize=auto;html=1;" edge="1" parent="1" source="c_KZ6jZtcO5i2P0w1yy3-1" target="9VpWsme2xIUJFyUyPwxU-6">
          <mxGeometry relative="1" as="geometry" />
        </mxCell>
        <mxCell id="c_KZ6jZtcO5i2P0w1yy3-5" value="" style="edgeStyle=orthogonalEdgeStyle;rounded=0;orthogonalLoop=1;jettySize=auto;html=1;entryX=0.5;entryY=0;entryDx=0;entryDy=0;" edge="1" parent="1" source="c_KZ6jZtcO5i2P0w1yy3-1" target="9VpWsme2xIUJFyUyPwxU-23">
          <mxGeometry relative="1" as="geometry" />
        </mxCell>
        <mxCell id="c_KZ6jZtcO5i2P0w1yy3-1" value="&lt;div style=&quot;font-family: Consolas, &amp;quot;Courier New&amp;quot;, monospace; font-size: 14px; line-height: 19px;&quot;&gt;&lt;span style=&quot;background-color: rgb(255, 255, 255);&quot;&gt;i&amp;lt;arr.Length&lt;/span&gt;&lt;/div&gt;" style="rhombus;whiteSpace=wrap;html=1;" vertex="1" parent="1">
          <mxGeometry x="310" y="180" width="200" height="80" as="geometry" />
        </mxCell>
        <mxCell id="c_KZ6jZtcO5i2P0w1yy3-7" value="true" style="text;html=1;strokeColor=none;fillColor=none;align=center;verticalAlign=middle;whiteSpace=wrap;rounded=0;" vertex="1" parent="1">
          <mxGeometry x="400" y="270" width="60" height="30" as="geometry" />
        </mxCell>
        <mxCell id="c_KZ6jZtcO5i2P0w1yy3-8" value="false" style="text;html=1;strokeColor=none;fillColor=none;align=center;verticalAlign=middle;whiteSpace=wrap;rounded=0;" vertex="1" parent="1">
          <mxGeometry x="580" y="220" width="40" height="30" as="geometry" />
        </mxCell>
        <mxCell id="c_KZ6jZtcO5i2P0w1yy3-10" value="false" style="text;html=1;strokeColor=none;fillColor=none;align=center;verticalAlign=middle;whiteSpace=wrap;rounded=0;" vertex="1" parent="1">
          <mxGeometry x="240" y="320" width="60" height="30" as="geometry" />
        </mxCell>
      </root>
    </mxGraphModel>
  </diagram>
</mxfile>
